<?xml version="1.0" encoding="UTF-8" standalone="no"?>
<!DOCTYPE svg PUBLIC "-//W3C//DTD SVG 1.1//EN" "http://www.w3.org/Graphics/SVG/1.1/DTD/svg11.dtd">
<svg xmlns="http://www.w3.org/2000/svg" version="1.1" viewBox="0 0 861 671">
<g stroke-width="2.00" fill="none" stroke-linecap="butt">
<path stroke="#808080" vector-effect="non-scaling-stroke" d="
  M 699.50 285.79
  Q 415.23 418.58 130.89 551.24
  Q 128.75 552.24 127.36 552.55"
/>
<path stroke="#808080" vector-effect="non-scaling-stroke" d="
  M 112.79 592.50
  Q 425.81 446.75 738.69 300.69
  Q 738.87 300.60 739.04 300.25"
/>
</g>
<path fill="#000101" d="
  M 699.50 285.79
  Q 415.23 418.58 130.89 551.24
  Q 128.75 552.24 127.36 552.55
  L 1.13 281.75
  A 1.09 1.00 65.2 0 1 1.58 280.35
  L 27.33 268.36
  A 0.62 0.60 -24.9 0 0 27.64 267.55
  L 16.01 242.75
  A 1.01 0.95 65.0 0 1 16.44 241.43
  L 532.33 0.86
  A 0.86 0.85 -24.9 0 1 533.47 1.27
  L 545.08 26.21
  A 0.65 0.38 65.4 0 0 545.70 26.64
  L 572.07 14.33
  A 0.58 0.52 64.4 0 1 572.79 14.63
  L 698.84 284.96
  A 0.87 0.18 -76.2 0 1 698.82 285.59
  Q 698.76 285.90 699.50 285.79
  Z"
/>
<path fill="#000101" d="
  M 112.79 592.50
  Q 425.81 446.75 738.69 300.69
  Q 738.87 300.60 739.04 300.25
  L 739.30 300.26
  Q 739.69 300.29 739.78 300.24
  L 847.17 250.16
  A 0.66 0.62 -24.8 0 1 848.03 250.45
  L 860.05 276.19
  A 0.95 0.85 65.0 0 1 859.68 277.41
  L 17.43 670.16
  A 0.44 0.42 -25.1 0 1 16.85 669.96
  L 4.65 643.90
  A 0.82 0.82 -16.7 0 1 5.04 642.81
  L 112.79 592.50
  Z"
/>
<path fill="#ffffff" d="
  M 739.04 300.25
  Q 738.87 300.60 738.69 300.69
  Q 425.81 446.75 112.79 592.50
  L 100.50 565.98
  A 0.72 0.72 -25.5 0 1 100.84 565.03
  L 127.36 552.55
  Q 128.75 552.24 130.89 551.24
  Q 415.23 418.58 699.50 285.79
  L 725.92 273.55
  A 0.68 0.67 -24.9 0 1 726.82 273.87
  L 739.04 300.25
  Z"
/>
</svg>
